<mxfile host="Electron" agent="Mozilla/5.0 (Windows NT 10.0; Win64; x64) AppleWebKit/537.36 (KHTML, like Gecko) draw.io/24.7.17 Chrome/128.0.6613.36 Electron/32.0.1 Safari/537.36" version="24.7.17">
  <diagram id="C5RBs43oDa-KdzZeNtuy" name="Page-1">
    <mxGraphModel dx="3694" dy="2656" grid="1" gridSize="10" guides="1" tooltips="1" connect="1" arrows="1" fold="1" page="1" pageScale="1" pageWidth="827" pageHeight="1169" math="0" shadow="0">
      <root>
        <mxCell id="WIyWlLk6GJQsqaUBKTNV-0" />
        <mxCell id="WIyWlLk6GJQsqaUBKTNV-1" parent="WIyWlLk6GJQsqaUBKTNV-0" />
        <mxCell id="lvZQd4kGXBRueiIC1qZG-39" value="&lt;b&gt;GameOverController&lt;/b&gt;" style="html=1;whiteSpace=wrap;" vertex="1" parent="WIyWlLk6GJQsqaUBKTNV-1">
          <mxGeometry x="50" y="400" width="130" height="50" as="geometry" />
        </mxCell>
        <mxCell id="lvZQd4kGXBRueiIC1qZG-62" style="edgeStyle=orthogonalEdgeStyle;rounded=0;orthogonalLoop=1;jettySize=auto;html=1;" edge="1" parent="WIyWlLk6GJQsqaUBKTNV-1" source="lvZQd4kGXBRueiIC1qZG-40">
          <mxGeometry relative="1" as="geometry">
            <mxPoint x="150.00000000000006" y="255" as="targetPoint" />
          </mxGeometry>
        </mxCell>
        <mxCell id="lvZQd4kGXBRueiIC1qZG-40" value="&lt;b&gt;Main&lt;/b&gt;" style="html=1;whiteSpace=wrap;" vertex="1" parent="WIyWlLk6GJQsqaUBKTNV-1">
          <mxGeometry x="230" y="230" width="110" height="50" as="geometry" />
        </mxCell>
        <mxCell id="lvZQd4kGXBRueiIC1qZG-41" value="" style="endArrow=classic;html=1;rounded=0;exitX=0.25;exitY=1;exitDx=0;exitDy=0;entryX=0.5;entryY=0;entryDx=0;entryDy=0;" edge="1" parent="WIyWlLk6GJQsqaUBKTNV-1" source="lvZQd4kGXBRueiIC1qZG-40" target="lvZQd4kGXBRueiIC1qZG-39">
          <mxGeometry width="50" height="50" relative="1" as="geometry">
            <mxPoint x="175" y="360.0000000000001" as="sourcePoint" />
            <mxPoint x="160" y="290" as="targetPoint" />
          </mxGeometry>
        </mxCell>
        <mxCell id="lvZQd4kGXBRueiIC1qZG-42" value="&lt;b&gt;HomeController&lt;/b&gt;" style="html=1;whiteSpace=wrap;" vertex="1" parent="WIyWlLk6GJQsqaUBKTNV-1">
          <mxGeometry x="135" y="490" width="110" height="50" as="geometry" />
        </mxCell>
        <mxCell id="lvZQd4kGXBRueiIC1qZG-44" value="" style="endArrow=classic;html=1;rounded=0;exitX=0.33;exitY=0.997;exitDx=0;exitDy=0;exitPerimeter=0;entryX=0.5;entryY=0;entryDx=0;entryDy=0;" edge="1" parent="WIyWlLk6GJQsqaUBKTNV-1" source="lvZQd4kGXBRueiIC1qZG-40" target="lvZQd4kGXBRueiIC1qZG-42">
          <mxGeometry width="50" height="50" relative="1" as="geometry">
            <mxPoint x="260" y="410" as="sourcePoint" />
            <mxPoint x="330" y="370" as="targetPoint" />
          </mxGeometry>
        </mxCell>
        <mxCell id="lvZQd4kGXBRueiIC1qZG-45" value="&lt;b&gt;InformationController&lt;/b&gt;" style="html=1;whiteSpace=wrap;" vertex="1" parent="WIyWlLk6GJQsqaUBKTNV-1">
          <mxGeometry x="500" y="140" width="140" height="50" as="geometry" />
        </mxCell>
        <mxCell id="lvZQd4kGXBRueiIC1qZG-46" value="" style="endArrow=classic;html=1;rounded=0;exitX=1.015;exitY=0.346;exitDx=0;exitDy=0;entryX=0;entryY=0.5;entryDx=0;entryDy=0;exitPerimeter=0;" edge="1" parent="WIyWlLk6GJQsqaUBKTNV-1" source="lvZQd4kGXBRueiIC1qZG-40" target="lvZQd4kGXBRueiIC1qZG-45">
          <mxGeometry width="50" height="50" relative="1" as="geometry">
            <mxPoint x="288" y="291" as="sourcePoint" />
            <mxPoint x="275" y="420" as="targetPoint" />
          </mxGeometry>
        </mxCell>
        <mxCell id="lvZQd4kGXBRueiIC1qZG-47" value="&lt;b&gt;InformationSubpage2Controller&lt;/b&gt;" style="html=1;whiteSpace=wrap;" vertex="1" parent="WIyWlLk6GJQsqaUBKTNV-1">
          <mxGeometry x="531" y="260" width="184" height="50" as="geometry" />
        </mxCell>
        <mxCell id="lvZQd4kGXBRueiIC1qZG-48" value="&lt;b&gt;InformationSubpage3Controller&lt;/b&gt;" style="html=1;whiteSpace=wrap;" vertex="1" parent="WIyWlLk6GJQsqaUBKTNV-1">
          <mxGeometry x="540" y="320" width="200" height="50" as="geometry" />
        </mxCell>
        <mxCell id="lvZQd4kGXBRueiIC1qZG-49" value="&lt;b&gt;InformationSubpage1Controller&lt;/b&gt;" style="html=1;whiteSpace=wrap;" vertex="1" parent="WIyWlLk6GJQsqaUBKTNV-1">
          <mxGeometry x="515" y="200" width="210" height="50" as="geometry" />
        </mxCell>
        <mxCell id="lvZQd4kGXBRueiIC1qZG-51" value="" style="endArrow=classic;html=1;rounded=0;exitX=1;exitY=1;exitDx=0;exitDy=0;entryX=0;entryY=0.5;entryDx=0;entryDy=0;" edge="1" parent="WIyWlLk6GJQsqaUBKTNV-1" source="lvZQd4kGXBRueiIC1qZG-40" target="lvZQd4kGXBRueiIC1qZG-48">
          <mxGeometry width="50" height="50" relative="1" as="geometry">
            <mxPoint x="268" y="290" as="sourcePoint" />
            <mxPoint x="125" y="410" as="targetPoint" />
          </mxGeometry>
        </mxCell>
        <mxCell id="lvZQd4kGXBRueiIC1qZG-52" value="" style="endArrow=classic;html=1;rounded=0;entryX=0;entryY=0.5;entryDx=0;entryDy=0;exitX=1;exitY=0.75;exitDx=0;exitDy=0;" edge="1" parent="WIyWlLk6GJQsqaUBKTNV-1" source="lvZQd4kGXBRueiIC1qZG-40" target="lvZQd4kGXBRueiIC1qZG-47">
          <mxGeometry width="50" height="50" relative="1" as="geometry">
            <mxPoint x="269" y="279" as="sourcePoint" />
            <mxPoint x="180" y="520" as="targetPoint" />
          </mxGeometry>
        </mxCell>
        <mxCell id="lvZQd4kGXBRueiIC1qZG-53" value="" style="endArrow=classic;html=1;rounded=0;entryX=0;entryY=0.5;entryDx=0;entryDy=0;exitX=1;exitY=0.5;exitDx=0;exitDy=0;" edge="1" parent="WIyWlLk6GJQsqaUBKTNV-1" source="lvZQd4kGXBRueiIC1qZG-40" target="lvZQd4kGXBRueiIC1qZG-49">
          <mxGeometry width="50" height="50" relative="1" as="geometry">
            <mxPoint x="350" y="260" as="sourcePoint" />
            <mxPoint x="410" y="520" as="targetPoint" />
          </mxGeometry>
        </mxCell>
        <mxCell id="lvZQd4kGXBRueiIC1qZG-54" value="&lt;b&gt;MapsController&lt;/b&gt;" style="html=1;whiteSpace=wrap;" vertex="1" parent="WIyWlLk6GJQsqaUBKTNV-1">
          <mxGeometry x="460" y="70" width="140" height="50" as="geometry" />
        </mxCell>
        <mxCell id="lvZQd4kGXBRueiIC1qZG-55" value="&lt;b&gt;OptionController&lt;/b&gt;" style="html=1;whiteSpace=wrap;" vertex="1" parent="WIyWlLk6GJQsqaUBKTNV-1">
          <mxGeometry x="280" y="60" width="140" height="50" as="geometry" />
        </mxCell>
        <mxCell id="lvZQd4kGXBRueiIC1qZG-56" value="&lt;b&gt;ScoreController&lt;/b&gt;" style="html=1;whiteSpace=wrap;" vertex="1" parent="WIyWlLk6GJQsqaUBKTNV-1">
          <mxGeometry x="120" y="120" width="140" height="50" as="geometry" />
        </mxCell>
        <mxCell id="lvZQd4kGXBRueiIC1qZG-57" value="&lt;b&gt;StartController&lt;/b&gt;" style="html=1;whiteSpace=wrap;" vertex="1" parent="WIyWlLk6GJQsqaUBKTNV-1">
          <mxGeometry x="10" y="230" width="140" height="50" as="geometry" />
        </mxCell>
        <mxCell id="lvZQd4kGXBRueiIC1qZG-65" value="" style="endArrow=classic;html=1;rounded=0;exitX=0.371;exitY=-0.026;exitDx=0;exitDy=0;exitPerimeter=0;entryX=0.459;entryY=1.009;entryDx=0;entryDy=0;entryPerimeter=0;" edge="1" parent="WIyWlLk6GJQsqaUBKTNV-1" source="lvZQd4kGXBRueiIC1qZG-40" target="lvZQd4kGXBRueiIC1qZG-56">
          <mxGeometry width="50" height="50" relative="1" as="geometry">
            <mxPoint x="140" y="220" as="sourcePoint" />
            <mxPoint x="190" y="170" as="targetPoint" />
          </mxGeometry>
        </mxCell>
        <mxCell id="lvZQd4kGXBRueiIC1qZG-66" value="" style="endArrow=classic;html=1;rounded=0;entryX=0.25;entryY=1;entryDx=0;entryDy=0;exitX=0.5;exitY=0;exitDx=0;exitDy=0;" edge="1" parent="WIyWlLk6GJQsqaUBKTNV-1" source="lvZQd4kGXBRueiIC1qZG-40" target="lvZQd4kGXBRueiIC1qZG-55">
          <mxGeometry width="50" height="50" relative="1" as="geometry">
            <mxPoint x="290" y="230" as="sourcePoint" />
            <mxPoint x="340" y="180" as="targetPoint" />
          </mxGeometry>
        </mxCell>
        <mxCell id="lvZQd4kGXBRueiIC1qZG-67" value="" style="endArrow=classic;html=1;rounded=0;entryX=0;entryY=0.5;entryDx=0;entryDy=0;" edge="1" parent="WIyWlLk6GJQsqaUBKTNV-1" source="lvZQd4kGXBRueiIC1qZG-40" target="lvZQd4kGXBRueiIC1qZG-54">
          <mxGeometry width="50" height="50" relative="1" as="geometry">
            <mxPoint x="350" y="280" as="sourcePoint" />
            <mxPoint x="400" y="230" as="targetPoint" />
          </mxGeometry>
        </mxCell>
        <mxCell id="lvZQd4kGXBRueiIC1qZG-68" value="&lt;b&gt;PlayerController&lt;/b&gt;" style="html=1;whiteSpace=wrap;" vertex="1" parent="WIyWlLk6GJQsqaUBKTNV-1">
          <mxGeometry x="-60" y="330" width="140" height="50" as="geometry" />
        </mxCell>
        <mxCell id="lvZQd4kGXBRueiIC1qZG-69" value="" style="endArrow=classic;html=1;rounded=0;entryX=1;entryY=0.5;entryDx=0;entryDy=0;exitX=0;exitY=0.75;exitDx=0;exitDy=0;" edge="1" parent="WIyWlLk6GJQsqaUBKTNV-1" source="lvZQd4kGXBRueiIC1qZG-40" target="lvZQd4kGXBRueiIC1qZG-68">
          <mxGeometry width="50" height="50" relative="1" as="geometry">
            <mxPoint x="170" y="340" as="sourcePoint" />
            <mxPoint x="220" y="290" as="targetPoint" />
          </mxGeometry>
        </mxCell>
        <mxCell id="lvZQd4kGXBRueiIC1qZG-71" value="&lt;b&gt;PlayerModel&lt;/b&gt;" style="html=1;whiteSpace=wrap;" vertex="1" parent="WIyWlLk6GJQsqaUBKTNV-1">
          <mxGeometry x="-270" y="440" width="140" height="50" as="geometry" />
        </mxCell>
        <mxCell id="lvZQd4kGXBRueiIC1qZG-73" value="Use" style="endArrow=open;endSize=12;dashed=1;html=1;rounded=0;entryX=0.643;entryY=-0.007;entryDx=0;entryDy=0;entryPerimeter=0;exitX=0.078;exitY=1.039;exitDx=0;exitDy=0;exitPerimeter=0;" edge="1" parent="WIyWlLk6GJQsqaUBKTNV-1" source="lvZQd4kGXBRueiIC1qZG-68" target="lvZQd4kGXBRueiIC1qZG-71">
          <mxGeometry x="-0.0625" y="1" width="160" relative="1" as="geometry">
            <mxPoint x="-2" y="380" as="sourcePoint" />
            <mxPoint x="-120" y="440" as="targetPoint" />
            <mxPoint as="offset" />
          </mxGeometry>
        </mxCell>
        <mxCell id="lvZQd4kGXBRueiIC1qZG-74" value="&lt;b&gt;PlayerView&lt;/b&gt;" style="html=1;whiteSpace=wrap;" vertex="1" parent="WIyWlLk6GJQsqaUBKTNV-1">
          <mxGeometry x="-280" y="320" width="140" height="50" as="geometry" />
        </mxCell>
        <mxCell id="lvZQd4kGXBRueiIC1qZG-75" value="Use" style="endArrow=open;endSize=12;dashed=1;html=1;rounded=0;exitX=0;exitY=0.5;exitDx=0;exitDy=0;entryX=1;entryY=0.5;entryDx=0;entryDy=0;" edge="1" parent="WIyWlLk6GJQsqaUBKTNV-1" source="lvZQd4kGXBRueiIC1qZG-68" target="lvZQd4kGXBRueiIC1qZG-74">
          <mxGeometry width="160" relative="1" as="geometry">
            <mxPoint x="-31" y="393" as="sourcePoint" />
            <mxPoint x="-87" y="490" as="targetPoint" />
          </mxGeometry>
        </mxCell>
        <mxCell id="lvZQd4kGXBRueiIC1qZG-76" value="&lt;b&gt;GameState&lt;/b&gt;" style="html=1;whiteSpace=wrap;" vertex="1" parent="WIyWlLk6GJQsqaUBKTNV-1">
          <mxGeometry x="-60" y="130" width="110" height="50" as="geometry" />
        </mxCell>
        <mxCell id="lvZQd4kGXBRueiIC1qZG-77" value="Use" style="endArrow=open;endSize=12;dashed=1;html=1;rounded=0;entryX=1;entryY=0.75;entryDx=0;entryDy=0;" edge="1" parent="WIyWlLk6GJQsqaUBKTNV-1" source="lvZQd4kGXBRueiIC1qZG-40" target="lvZQd4kGXBRueiIC1qZG-76">
          <mxGeometry width="160" relative="1" as="geometry">
            <mxPoint x="-80" y="200" as="sourcePoint" />
            <mxPoint x="80" y="200" as="targetPoint" />
          </mxGeometry>
        </mxCell>
        <mxCell id="lvZQd4kGXBRueiIC1qZG-78" value="&lt;b&gt;Character&lt;/b&gt;" style="html=1;whiteSpace=wrap;" vertex="1" parent="WIyWlLk6GJQsqaUBKTNV-1">
          <mxGeometry x="-190" y="230" width="110" height="50" as="geometry" />
        </mxCell>
        <mxCell id="lvZQd4kGXBRueiIC1qZG-79" value="&lt;b&gt;Map&lt;/b&gt;" style="html=1;whiteSpace=wrap;" vertex="1" parent="WIyWlLk6GJQsqaUBKTNV-1">
          <mxGeometry x="-150" y="40" width="110" height="50" as="geometry" />
        </mxCell>
        <mxCell id="lvZQd4kGXBRueiIC1qZG-84" value="&lt;b&gt;EntitySelector&lt;/b&gt;" style="html=1;whiteSpace=wrap;" vertex="1" parent="WIyWlLk6GJQsqaUBKTNV-1">
          <mxGeometry x="280" y="560" width="140" height="50" as="geometry" />
        </mxCell>
        <mxCell id="lvZQd4kGXBRueiIC1qZG-85" value="&lt;b&gt;InitContentAdapter&lt;/b&gt;" style="html=1;whiteSpace=wrap;" vertex="1" parent="WIyWlLk6GJQsqaUBKTNV-1">
          <mxGeometry x="273" y="470" width="140" height="50" as="geometry" />
        </mxCell>
        <mxCell id="lvZQd4kGXBRueiIC1qZG-86" value="&lt;b&gt;InitContent&lt;/b&gt;" style="html=1;whiteSpace=wrap;" vertex="1" parent="WIyWlLk6GJQsqaUBKTNV-1">
          <mxGeometry x="240" y="380" width="140" height="50" as="geometry" />
        </mxCell>
        <mxCell id="lvZQd4kGXBRueiIC1qZG-87" value="" style="endArrow=open;endFill=1;endSize=12;html=1;rounded=0;entryX=0.656;entryY=0.056;entryDx=0;entryDy=0;entryPerimeter=0;exitX=0.187;exitY=1.016;exitDx=0;exitDy=0;exitPerimeter=0;" edge="1" parent="WIyWlLk6GJQsqaUBKTNV-1" source="lvZQd4kGXBRueiIC1qZG-76" target="lvZQd4kGXBRueiIC1qZG-78">
          <mxGeometry width="160" relative="1" as="geometry">
            <mxPoint x="-170" y="200" as="sourcePoint" />
            <mxPoint x="-10" y="200" as="targetPoint" />
          </mxGeometry>
        </mxCell>
        <mxCell id="lvZQd4kGXBRueiIC1qZG-88" value="" style="endArrow=open;endFill=1;endSize=12;html=1;rounded=0;entryX=1;entryY=0.5;entryDx=0;entryDy=0;exitX=0.609;exitY=0.056;exitDx=0;exitDy=0;exitPerimeter=0;" edge="1" parent="WIyWlLk6GJQsqaUBKTNV-1" source="lvZQd4kGXBRueiIC1qZG-76" target="lvZQd4kGXBRueiIC1qZG-79">
          <mxGeometry width="160" relative="1" as="geometry">
            <mxPoint x="-10" y="80" as="sourcePoint" />
            <mxPoint x="150" y="80" as="targetPoint" />
          </mxGeometry>
        </mxCell>
        <mxCell id="lvZQd4kGXBRueiIC1qZG-89" value="Use" style="endArrow=open;endSize=12;dashed=1;html=1;rounded=0;entryX=0.5;entryY=0;entryDx=0;entryDy=0;" edge="1" parent="WIyWlLk6GJQsqaUBKTNV-1" target="lvZQd4kGXBRueiIC1qZG-86">
          <mxGeometry width="160" relative="1" as="geometry">
            <mxPoint x="270" y="280" as="sourcePoint" />
            <mxPoint x="390" y="440" as="targetPoint" />
          </mxGeometry>
        </mxCell>
        <mxCell id="lvZQd4kGXBRueiIC1qZG-90" value="Use" style="endArrow=open;endSize=12;dashed=1;html=1;rounded=0;entryX=0.5;entryY=0;entryDx=0;entryDy=0;exitX=0.5;exitY=1;exitDx=0;exitDy=0;" edge="1" parent="WIyWlLk6GJQsqaUBKTNV-1" source="lvZQd4kGXBRueiIC1qZG-86" target="lvZQd4kGXBRueiIC1qZG-85">
          <mxGeometry width="160" relative="1" as="geometry">
            <mxPoint x="310" y="520" as="sourcePoint" />
            <mxPoint x="470" y="520" as="targetPoint" />
          </mxGeometry>
        </mxCell>
        <mxCell id="lvZQd4kGXBRueiIC1qZG-91" value="Use" style="endArrow=open;endSize=12;dashed=1;html=1;rounded=0;exitX=0.472;exitY=1.018;exitDx=0;exitDy=0;exitPerimeter=0;" edge="1" parent="WIyWlLk6GJQsqaUBKTNV-1" source="lvZQd4kGXBRueiIC1qZG-85" target="lvZQd4kGXBRueiIC1qZG-84">
          <mxGeometry x="-0.0113" width="160" relative="1" as="geometry">
            <mxPoint x="370" y="630" as="sourcePoint" />
            <mxPoint x="390" y="690" as="targetPoint" />
            <mxPoint as="offset" />
          </mxGeometry>
        </mxCell>
        <mxCell id="lvZQd4kGXBRueiIC1qZG-93" value="&lt;b&gt;EntityCreator&lt;/b&gt;" style="html=1;whiteSpace=wrap;" vertex="1" parent="WIyWlLk6GJQsqaUBKTNV-1">
          <mxGeometry x="780" y="620" width="140" height="50" as="geometry" />
        </mxCell>
        <mxCell id="lvZQd4kGXBRueiIC1qZG-94" value="Use" style="endArrow=open;endSize=12;dashed=1;html=1;rounded=0;exitX=1;exitY=0.5;exitDx=0;exitDy=0;entryX=0;entryY=0.5;entryDx=0;entryDy=0;" edge="1" parent="WIyWlLk6GJQsqaUBKTNV-1" source="lvZQd4kGXBRueiIC1qZG-84" target="lvZQd4kGXBRueiIC1qZG-93">
          <mxGeometry x="-0.0113" width="160" relative="1" as="geometry">
            <mxPoint x="386.5" y="720" as="sourcePoint" />
            <mxPoint x="398" y="770" as="targetPoint" />
            <mxPoint as="offset" />
          </mxGeometry>
        </mxCell>
        <mxCell id="lvZQd4kGXBRueiIC1qZG-97" value="&lt;b&gt;DestinationBlock&lt;/b&gt;" style="html=1;whiteSpace=wrap;" vertex="1" parent="WIyWlLk6GJQsqaUBKTNV-1">
          <mxGeometry x="70" y="980" width="140" height="50" as="geometry" />
        </mxCell>
        <mxCell id="lvZQd4kGXBRueiIC1qZG-98" value="Use" style="endArrow=open;endSize=12;dashed=1;html=1;rounded=0;entryX=0.5;entryY=0;entryDx=0;entryDy=0;exitX=0.393;exitY=1.024;exitDx=0;exitDy=0;exitPerimeter=0;" edge="1" parent="WIyWlLk6GJQsqaUBKTNV-1" source="lvZQd4kGXBRueiIC1qZG-84" target="lvZQd4kGXBRueiIC1qZG-97">
          <mxGeometry width="160" relative="1" as="geometry">
            <mxPoint x="70" y="770" as="sourcePoint" />
            <mxPoint x="230" y="770" as="targetPoint" />
          </mxGeometry>
        </mxCell>
        <mxCell id="lvZQd4kGXBRueiIC1qZG-101" value="&lt;b&gt;DestinationNode&lt;/b&gt;" style="html=1;whiteSpace=wrap;" vertex="1" parent="WIyWlLk6GJQsqaUBKTNV-1">
          <mxGeometry x="240" y="1080" width="140" height="50" as="geometry" />
        </mxCell>
        <mxCell id="lvZQd4kGXBRueiIC1qZG-102" value="&lt;b&gt;Entity&lt;/b&gt;" style="html=1;whiteSpace=wrap;" vertex="1" parent="WIyWlLk6GJQsqaUBKTNV-1">
          <mxGeometry x="25" y="600" width="110" height="50" as="geometry" />
        </mxCell>
        <mxCell id="lvZQd4kGXBRueiIC1qZG-103" value="Extends" style="endArrow=block;endSize=16;endFill=0;html=1;rounded=0;entryX=0.5;entryY=1;entryDx=0;entryDy=0;exitX=0.385;exitY=-0.078;exitDx=0;exitDy=0;exitPerimeter=0;" edge="1" parent="WIyWlLk6GJQsqaUBKTNV-1" source="lvZQd4kGXBRueiIC1qZG-97" target="lvZQd4kGXBRueiIC1qZG-102">
          <mxGeometry width="160" relative="1" as="geometry">
            <mxPoint x="140" y="830" as="sourcePoint" />
            <mxPoint x="110" y="860" as="targetPoint" />
          </mxGeometry>
        </mxCell>
        <mxCell id="lvZQd4kGXBRueiIC1qZG-104" value="&lt;b&gt;MovableNode&lt;/b&gt;" style="html=1;whiteSpace=wrap;" vertex="1" parent="WIyWlLk6GJQsqaUBKTNV-1">
          <mxGeometry x="-140" y="630" width="110" height="50" as="geometry" />
        </mxCell>
        <mxCell id="lvZQd4kGXBRueiIC1qZG-106" value="Use" style="endArrow=open;endSize=12;dashed=1;html=1;rounded=0;entryX=0.568;entryY=-0.005;entryDx=0;entryDy=0;exitX=0.408;exitY=0.958;exitDx=0;exitDy=0;exitPerimeter=0;entryPerimeter=0;" edge="1" parent="WIyWlLk6GJQsqaUBKTNV-1" source="lvZQd4kGXBRueiIC1qZG-84" target="lvZQd4kGXBRueiIC1qZG-101">
          <mxGeometry width="160" relative="1" as="geometry">
            <mxPoint x="225" y="680" as="sourcePoint" />
            <mxPoint x="140" y="830" as="targetPoint" />
          </mxGeometry>
        </mxCell>
        <mxCell id="lvZQd4kGXBRueiIC1qZG-107" value="&lt;b&gt;EnemyNode&lt;/b&gt;" style="html=1;whiteSpace=wrap;" vertex="1" parent="WIyWlLk6GJQsqaUBKTNV-1">
          <mxGeometry x="-130" y="740" width="140" height="50" as="geometry" />
        </mxCell>
        <mxCell id="lvZQd4kGXBRueiIC1qZG-108" value="Extends" style="endArrow=block;endSize=16;endFill=0;html=1;rounded=0;entryX=0.5;entryY=1;entryDx=0;entryDy=0;exitX=0.5;exitY=0;exitDx=0;exitDy=0;" edge="1" parent="WIyWlLk6GJQsqaUBKTNV-1" source="lvZQd4kGXBRueiIC1qZG-107" target="lvZQd4kGXBRueiIC1qZG-104">
          <mxGeometry x="0.0144" width="160" relative="1" as="geometry">
            <mxPoint x="-70" y="800" as="sourcePoint" />
            <mxPoint x="-84" y="690" as="targetPoint" />
            <mxPoint as="offset" />
          </mxGeometry>
        </mxCell>
        <mxCell id="lvZQd4kGXBRueiIC1qZG-109" value="&lt;b&gt;Movable&lt;/b&gt;" style="html=1;whiteSpace=wrap;" vertex="1" parent="WIyWlLk6GJQsqaUBKTNV-1">
          <mxGeometry x="-292.5" y="630" width="110" height="50" as="geometry" />
        </mxCell>
        <mxCell id="lvZQd4kGXBRueiIC1qZG-112" value="" style="endArrow=open;endFill=1;endSize=12;html=1;rounded=0;entryX=1;entryY=0.5;entryDx=0;entryDy=0;exitX=0;exitY=0.5;exitDx=0;exitDy=0;" edge="1" parent="WIyWlLk6GJQsqaUBKTNV-1" source="lvZQd4kGXBRueiIC1qZG-104" target="lvZQd4kGXBRueiIC1qZG-109">
          <mxGeometry width="160" relative="1" as="geometry">
            <mxPoint x="-140" y="650" as="sourcePoint" />
            <mxPoint x="-159.5" y="532" as="targetPoint" />
          </mxGeometry>
        </mxCell>
        <mxCell id="lvZQd4kGXBRueiIC1qZG-115" value="&lt;b&gt;LineMove&lt;/b&gt;" style="html=1;whiteSpace=wrap;" vertex="1" parent="WIyWlLk6GJQsqaUBKTNV-1">
          <mxGeometry x="-345" y="520" width="110" height="50" as="geometry" />
        </mxCell>
        <mxCell id="lvZQd4kGXBRueiIC1qZG-116" value="&lt;b&gt;NoMove&lt;/b&gt;" style="html=1;whiteSpace=wrap;" vertex="1" parent="WIyWlLk6GJQsqaUBKTNV-1">
          <mxGeometry x="-220" y="520" width="110" height="50" as="geometry" />
        </mxCell>
        <mxCell id="lvZQd4kGXBRueiIC1qZG-117" value="Extends" style="endArrow=block;endSize=16;endFill=0;html=1;rounded=0;entryX=0.352;entryY=1.024;entryDx=0;entryDy=0;entryPerimeter=0;" edge="1" parent="WIyWlLk6GJQsqaUBKTNV-1" source="lvZQd4kGXBRueiIC1qZG-109" target="lvZQd4kGXBRueiIC1qZG-115">
          <mxGeometry width="160" relative="1" as="geometry">
            <mxPoint x="-235" y="780" as="sourcePoint" />
            <mxPoint x="-289" y="570" as="targetPoint" />
          </mxGeometry>
        </mxCell>
        <mxCell id="lvZQd4kGXBRueiIC1qZG-118" value="Extends" style="endArrow=block;endSize=16;endFill=0;html=1;rounded=0;entryX=0.25;entryY=1;entryDx=0;entryDy=0;exitX=0.5;exitY=0;exitDx=0;exitDy=0;" edge="1" parent="WIyWlLk6GJQsqaUBKTNV-1" source="lvZQd4kGXBRueiIC1qZG-109" target="lvZQd4kGXBRueiIC1qZG-116">
          <mxGeometry width="160" relative="1" as="geometry">
            <mxPoint x="-241.5" y="640" as="sourcePoint" />
            <mxPoint x="-296.5" y="581" as="targetPoint" />
          </mxGeometry>
        </mxCell>
        <mxCell id="lvZQd4kGXBRueiIC1qZG-120" value="Use" style="endArrow=open;endSize=12;dashed=1;html=1;rounded=0;entryX=0.5;entryY=0;entryDx=0;entryDy=0;exitX=0.341;exitY=1.024;exitDx=0;exitDy=0;exitPerimeter=0;" edge="1" parent="WIyWlLk6GJQsqaUBKTNV-1" source="lvZQd4kGXBRueiIC1qZG-84" target="lvZQd4kGXBRueiIC1qZG-107">
          <mxGeometry width="160" relative="1" as="geometry">
            <mxPoint x="225" y="680" as="sourcePoint" />
            <mxPoint x="130" y="840" as="targetPoint" />
          </mxGeometry>
        </mxCell>
        <mxCell id="lvZQd4kGXBRueiIC1qZG-121" value="&lt;b&gt;FeatureBlock&lt;/b&gt;" style="html=1;whiteSpace=wrap;" vertex="1" parent="WIyWlLk6GJQsqaUBKTNV-1">
          <mxGeometry x="330" y="1010" width="140" height="50" as="geometry" />
        </mxCell>
        <mxCell id="lvZQd4kGXBRueiIC1qZG-122" value="Extends" style="endArrow=block;endSize=16;endFill=0;html=1;rounded=0;entryX=0.5;entryY=1;entryDx=0;entryDy=0;exitX=0.357;exitY=0;exitDx=0;exitDy=0;exitPerimeter=0;" edge="1" parent="WIyWlLk6GJQsqaUBKTNV-1" source="lvZQd4kGXBRueiIC1qZG-121" target="lvZQd4kGXBRueiIC1qZG-102">
          <mxGeometry width="160" relative="1" as="geometry">
            <mxPoint x="114" y="856" as="sourcePoint" />
            <mxPoint x="110" y="680" as="targetPoint" />
          </mxGeometry>
        </mxCell>
        <mxCell id="lvZQd4kGXBRueiIC1qZG-123" value="Use" style="endArrow=open;endSize=12;dashed=1;html=1;rounded=0;entryX=0.5;entryY=0;entryDx=0;entryDy=0;exitX=0.424;exitY=1.056;exitDx=0;exitDy=0;exitPerimeter=0;" edge="1" parent="WIyWlLk6GJQsqaUBKTNV-1" source="lvZQd4kGXBRueiIC1qZG-84" target="lvZQd4kGXBRueiIC1qZG-121">
          <mxGeometry width="160" relative="1" as="geometry">
            <mxPoint x="240" y="670" as="sourcePoint" />
            <mxPoint x="130" y="860" as="targetPoint" />
          </mxGeometry>
        </mxCell>
        <mxCell id="lvZQd4kGXBRueiIC1qZG-125" value="&lt;b&gt;FeatureNode&lt;/b&gt;" style="html=1;whiteSpace=wrap;" vertex="1" parent="WIyWlLk6GJQsqaUBKTNV-1">
          <mxGeometry x="440" y="1080" width="140" height="50" as="geometry" />
        </mxCell>
        <mxCell id="lvZQd4kGXBRueiIC1qZG-126" value="Use" style="endArrow=open;endSize=12;dashed=1;html=1;rounded=0;entryX=0.5;entryY=0;entryDx=0;entryDy=0;exitX=0.5;exitY=1;exitDx=0;exitDy=0;" edge="1" parent="WIyWlLk6GJQsqaUBKTNV-1" source="lvZQd4kGXBRueiIC1qZG-84" target="lvZQd4kGXBRueiIC1qZG-125">
          <mxGeometry width="160" relative="1" as="geometry">
            <mxPoint x="279" y="683" as="sourcePoint" />
            <mxPoint x="380" y="850" as="targetPoint" />
          </mxGeometry>
        </mxCell>
        <mxCell id="lvZQd4kGXBRueiIC1qZG-128" value="&lt;b&gt;FireDragonBlock&lt;/b&gt;" style="html=1;whiteSpace=wrap;" vertex="1" parent="WIyWlLk6GJQsqaUBKTNV-1">
          <mxGeometry x="500" y="1000" width="140" height="50" as="geometry" />
        </mxCell>
        <mxCell id="lvZQd4kGXBRueiIC1qZG-129" value="Extends" style="endArrow=block;endSize=16;endFill=0;html=1;rounded=0;entryX=0.75;entryY=1;entryDx=0;entryDy=0;exitX=0.45;exitY=-0.042;exitDx=0;exitDy=0;exitPerimeter=0;" edge="1" parent="WIyWlLk6GJQsqaUBKTNV-1" source="lvZQd4kGXBRueiIC1qZG-128" target="lvZQd4kGXBRueiIC1qZG-102">
          <mxGeometry width="160" relative="1" as="geometry">
            <mxPoint x="350" y="870" as="sourcePoint" />
            <mxPoint x="152" y="682" as="targetPoint" />
          </mxGeometry>
        </mxCell>
        <mxCell id="lvZQd4kGXBRueiIC1qZG-130" value="Use" style="endArrow=open;endSize=12;dashed=1;html=1;rounded=0;entryX=0.5;entryY=0;entryDx=0;entryDy=0;exitX=0.618;exitY=1.036;exitDx=0;exitDy=0;exitPerimeter=0;" edge="1" parent="WIyWlLk6GJQsqaUBKTNV-1" source="lvZQd4kGXBRueiIC1qZG-84" target="lvZQd4kGXBRueiIC1qZG-128">
          <mxGeometry width="160" relative="1" as="geometry">
            <mxPoint x="346" y="670" as="sourcePoint" />
            <mxPoint x="515" y="920" as="targetPoint" />
          </mxGeometry>
        </mxCell>
        <mxCell id="lvZQd4kGXBRueiIC1qZG-131" value="&lt;b&gt;FireDragonNode&lt;/b&gt;" style="html=1;whiteSpace=wrap;" vertex="1" parent="WIyWlLk6GJQsqaUBKTNV-1">
          <mxGeometry x="-65" y="1060" width="140" height="50" as="geometry" />
        </mxCell>
        <mxCell id="lvZQd4kGXBRueiIC1qZG-132" value="Extends" style="endArrow=block;endSize=16;endFill=0;html=1;rounded=0;entryX=0.5;entryY=1;entryDx=0;entryDy=0;exitX=0.5;exitY=0;exitDx=0;exitDy=0;" edge="1" parent="WIyWlLk6GJQsqaUBKTNV-1" source="lvZQd4kGXBRueiIC1qZG-131" target="lvZQd4kGXBRueiIC1qZG-107">
          <mxGeometry width="160" relative="1" as="geometry">
            <mxPoint x="10" y="1190" as="sourcePoint" />
            <mxPoint x="-32" y="960" as="targetPoint" />
          </mxGeometry>
        </mxCell>
        <mxCell id="lvZQd4kGXBRueiIC1qZG-133" value="Use" style="endArrow=open;endSize=12;dashed=1;html=1;rounded=0;entryX=0.5;entryY=0;entryDx=0;entryDy=0;exitX=0.357;exitY=0.965;exitDx=0;exitDy=0;exitPerimeter=0;" edge="1" parent="WIyWlLk6GJQsqaUBKTNV-1" source="lvZQd4kGXBRueiIC1qZG-84" target="lvZQd4kGXBRueiIC1qZG-131">
          <mxGeometry width="160" relative="1" as="geometry">
            <mxPoint x="303" y="681" as="sourcePoint" />
            <mxPoint x="5" y="770" as="targetPoint" />
          </mxGeometry>
        </mxCell>
        <mxCell id="lvZQd4kGXBRueiIC1qZG-134" value="&lt;b&gt;FlyingCarpetBlock&lt;/b&gt;" style="html=1;whiteSpace=wrap;" vertex="1" parent="WIyWlLk6GJQsqaUBKTNV-1">
          <mxGeometry x="655" y="1000" width="140" height="50" as="geometry" />
        </mxCell>
        <mxCell id="lvZQd4kGXBRueiIC1qZG-135" value="Extends" style="endArrow=block;endSize=16;endFill=0;html=1;rounded=0;entryX=1;entryY=0.75;entryDx=0;entryDy=0;" edge="1" parent="WIyWlLk6GJQsqaUBKTNV-1" source="lvZQd4kGXBRueiIC1qZG-134" target="lvZQd4kGXBRueiIC1qZG-102">
          <mxGeometry width="160" relative="1" as="geometry">
            <mxPoint x="139" y="1006" as="sourcePoint" />
            <mxPoint x="155" y="690" as="targetPoint" />
          </mxGeometry>
        </mxCell>
        <mxCell id="lvZQd4kGXBRueiIC1qZG-136" value="&lt;b&gt;FlyingCarpetNode&lt;/b&gt;" style="html=1;whiteSpace=wrap;" vertex="1" parent="WIyWlLk6GJQsqaUBKTNV-1">
          <mxGeometry x="-390" y="940" width="140" height="50" as="geometry" />
        </mxCell>
        <mxCell id="lvZQd4kGXBRueiIC1qZG-137" value="Use" style="endArrow=open;endSize=12;dashed=1;html=1;rounded=0;exitX=0.357;exitY=0.965;exitDx=0;exitDy=0;exitPerimeter=0;" edge="1" parent="WIyWlLk6GJQsqaUBKTNV-1" source="lvZQd4kGXBRueiIC1qZG-84" target="lvZQd4kGXBRueiIC1qZG-134">
          <mxGeometry width="160" relative="1" as="geometry">
            <mxPoint x="310" y="681" as="sourcePoint" />
            <mxPoint x="155" y="1010" as="targetPoint" />
          </mxGeometry>
        </mxCell>
        <mxCell id="lvZQd4kGXBRueiIC1qZG-138" value="Extends" style="endArrow=block;endSize=16;endFill=0;html=1;rounded=0;entryX=0.5;entryY=1;entryDx=0;entryDy=0;" edge="1" parent="WIyWlLk6GJQsqaUBKTNV-1" source="lvZQd4kGXBRueiIC1qZG-136" target="lvZQd4kGXBRueiIC1qZG-139">
          <mxGeometry width="160" relative="1" as="geometry">
            <mxPoint x="-371.25" y="960.0000000000002" as="sourcePoint" />
            <mxPoint x="-209" y="810" as="targetPoint" />
          </mxGeometry>
        </mxCell>
        <mxCell id="lvZQd4kGXBRueiIC1qZG-139" value="&lt;b&gt;MovableObjectNode&lt;/b&gt;" style="html=1;whiteSpace=wrap;" vertex="1" parent="WIyWlLk6GJQsqaUBKTNV-1">
          <mxGeometry x="-290" y="740" width="140" height="50" as="geometry" />
        </mxCell>
        <mxCell id="lvZQd4kGXBRueiIC1qZG-142" value="Extends" style="endArrow=block;endSize=16;endFill=0;html=1;rounded=0;exitX=0.5;exitY=0;exitDx=0;exitDy=0;entryX=0.155;entryY=1.045;entryDx=0;entryDy=0;entryPerimeter=0;" edge="1" parent="WIyWlLk6GJQsqaUBKTNV-1" source="lvZQd4kGXBRueiIC1qZG-139" target="lvZQd4kGXBRueiIC1qZG-104">
          <mxGeometry x="0.0144" width="160" relative="1" as="geometry">
            <mxPoint x="-50" y="750" as="sourcePoint" />
            <mxPoint x="-150" y="700" as="targetPoint" />
            <mxPoint as="offset" />
          </mxGeometry>
        </mxCell>
        <mxCell id="lvZQd4kGXBRueiIC1qZG-143" style="edgeStyle=orthogonalEdgeStyle;rounded=0;orthogonalLoop=1;jettySize=auto;html=1;exitX=0.5;exitY=1;exitDx=0;exitDy=0;" edge="1" parent="WIyWlLk6GJQsqaUBKTNV-1" source="lvZQd4kGXBRueiIC1qZG-131" target="lvZQd4kGXBRueiIC1qZG-131">
          <mxGeometry relative="1" as="geometry" />
        </mxCell>
        <mxCell id="lvZQd4kGXBRueiIC1qZG-144" value="&lt;b&gt;MummyNode&lt;/b&gt;" style="html=1;whiteSpace=wrap;" vertex="1" parent="WIyWlLk6GJQsqaUBKTNV-1">
          <mxGeometry x="-220" y="1060" width="140" height="50" as="geometry" />
        </mxCell>
        <mxCell id="lvZQd4kGXBRueiIC1qZG-145" value="&lt;b&gt;MummyBlock&lt;/b&gt;" style="html=1;whiteSpace=wrap;" vertex="1" parent="WIyWlLk6GJQsqaUBKTNV-1">
          <mxGeometry x="760" y="940" width="140" height="50" as="geometry" />
        </mxCell>
        <mxCell id="lvZQd4kGXBRueiIC1qZG-146" value="Use" style="endArrow=open;endSize=12;dashed=1;html=1;rounded=0;exitX=0.636;exitY=0.985;exitDx=0;exitDy=0;exitPerimeter=0;" edge="1" parent="WIyWlLk6GJQsqaUBKTNV-1" source="lvZQd4kGXBRueiIC1qZG-84" target="lvZQd4kGXBRueiIC1qZG-145">
          <mxGeometry width="160" relative="1" as="geometry">
            <mxPoint x="305" y="678" as="sourcePoint" />
            <mxPoint x="658" y="950" as="targetPoint" />
          </mxGeometry>
        </mxCell>
        <mxCell id="lvZQd4kGXBRueiIC1qZG-147" value="Extends" style="endArrow=block;endSize=16;endFill=0;html=1;rounded=0;entryX=1;entryY=1;entryDx=0;entryDy=0;exitX=0;exitY=0.5;exitDx=0;exitDy=0;" edge="1" parent="WIyWlLk6GJQsqaUBKTNV-1" source="lvZQd4kGXBRueiIC1qZG-145" target="lvZQd4kGXBRueiIC1qZG-102">
          <mxGeometry width="160" relative="1" as="geometry">
            <mxPoint x="650" y="950" as="sourcePoint" />
            <mxPoint x="210" y="677" as="targetPoint" />
          </mxGeometry>
        </mxCell>
        <mxCell id="lvZQd4kGXBRueiIC1qZG-148" value="Use" style="endArrow=open;endSize=12;dashed=1;html=1;rounded=0;entryX=0.586;entryY=0.105;entryDx=0;entryDy=0;entryPerimeter=0;" edge="1" parent="WIyWlLk6GJQsqaUBKTNV-1" target="lvZQd4kGXBRueiIC1qZG-144">
          <mxGeometry width="160" relative="1" as="geometry">
            <mxPoint x="290" y="670" as="sourcePoint" />
            <mxPoint x="15" y="1070" as="targetPoint" />
          </mxGeometry>
        </mxCell>
        <mxCell id="lvZQd4kGXBRueiIC1qZG-149" value="Extends" style="endArrow=block;endSize=16;endFill=0;html=1;rounded=0;entryX=0.364;entryY=1.005;entryDx=0;entryDy=0;exitX=0.5;exitY=0;exitDx=0;exitDy=0;entryPerimeter=0;" edge="1" parent="WIyWlLk6GJQsqaUBKTNV-1" source="lvZQd4kGXBRueiIC1qZG-144" target="lvZQd4kGXBRueiIC1qZG-107">
          <mxGeometry width="160" relative="1" as="geometry">
            <mxPoint x="-140" y="1050" as="sourcePoint" />
            <mxPoint x="-50" y="800" as="targetPoint" />
          </mxGeometry>
        </mxCell>
        <mxCell id="lvZQd4kGXBRueiIC1qZG-150" value="&lt;b&gt;ObstacleBlock&lt;/b&gt;" style="html=1;whiteSpace=wrap;" vertex="1" parent="WIyWlLk6GJQsqaUBKTNV-1">
          <mxGeometry x="790" y="880" width="140" height="50" as="geometry" />
        </mxCell>
        <mxCell id="lvZQd4kGXBRueiIC1qZG-151" value="Extends" style="endArrow=block;endSize=16;endFill=0;html=1;rounded=0;exitX=0.25;exitY=0;exitDx=0;exitDy=0;entryX=1;entryY=0.5;entryDx=0;entryDy=0;" edge="1" parent="WIyWlLk6GJQsqaUBKTNV-1" source="lvZQd4kGXBRueiIC1qZG-150" target="lvZQd4kGXBRueiIC1qZG-102">
          <mxGeometry width="160" relative="1" as="geometry">
            <mxPoint x="660" y="905" as="sourcePoint" />
            <mxPoint x="200" y="660" as="targetPoint" />
          </mxGeometry>
        </mxCell>
        <mxCell id="lvZQd4kGXBRueiIC1qZG-153" value="Text" style="edgeLabel;html=1;align=center;verticalAlign=middle;resizable=0;points=[];" vertex="1" connectable="0" parent="lvZQd4kGXBRueiIC1qZG-151">
          <mxGeometry x="0.8111" y="-3" relative="1" as="geometry">
            <mxPoint as="offset" />
          </mxGeometry>
        </mxCell>
        <mxCell id="lvZQd4kGXBRueiIC1qZG-152" value="Use" style="endArrow=open;endSize=12;dashed=1;html=1;rounded=0;exitX=0.821;exitY=1.065;exitDx=0;exitDy=0;exitPerimeter=0;entryX=0.414;entryY=-0.015;entryDx=0;entryDy=0;entryPerimeter=0;" edge="1" parent="WIyWlLk6GJQsqaUBKTNV-1" source="lvZQd4kGXBRueiIC1qZG-84" target="lvZQd4kGXBRueiIC1qZG-150">
          <mxGeometry width="160" relative="1" as="geometry">
            <mxPoint x="344" y="679" as="sourcePoint" />
            <mxPoint x="687" y="880" as="targetPoint" />
          </mxGeometry>
        </mxCell>
        <mxCell id="lvZQd4kGXBRueiIC1qZG-154" value="&lt;b&gt;Player&lt;/b&gt;" style="html=1;whiteSpace=wrap;" vertex="1" parent="WIyWlLk6GJQsqaUBKTNV-1">
          <mxGeometry x="827" y="800" width="140" height="50" as="geometry" />
        </mxCell>
        <mxCell id="lvZQd4kGXBRueiIC1qZG-155" value="Use" style="endArrow=open;endSize=12;dashed=1;html=1;rounded=0;exitX=0.921;exitY=1.005;exitDx=0;exitDy=0;exitPerimeter=0;entryX=0.25;entryY=0;entryDx=0;entryDy=0;" edge="1" parent="WIyWlLk6GJQsqaUBKTNV-1" source="lvZQd4kGXBRueiIC1qZG-84" target="lvZQd4kGXBRueiIC1qZG-154">
          <mxGeometry width="160" relative="1" as="geometry">
            <mxPoint x="405" y="623" as="sourcePoint" />
            <mxPoint x="858" y="889" as="targetPoint" />
          </mxGeometry>
        </mxCell>
        <mxCell id="lvZQd4kGXBRueiIC1qZG-156" value="Extends" style="endArrow=block;endSize=16;endFill=0;html=1;rounded=0;exitX=0;exitY=0.5;exitDx=0;exitDy=0;entryX=1;entryY=0.25;entryDx=0;entryDy=0;" edge="1" parent="WIyWlLk6GJQsqaUBKTNV-1" source="lvZQd4kGXBRueiIC1qZG-154" target="lvZQd4kGXBRueiIC1qZG-102">
          <mxGeometry width="160" relative="1" as="geometry">
            <mxPoint x="835" y="890" as="sourcePoint" />
            <mxPoint x="220" y="635" as="targetPoint" />
          </mxGeometry>
        </mxCell>
        <mxCell id="lvZQd4kGXBRueiIC1qZG-157" value="Text" style="edgeLabel;html=1;align=center;verticalAlign=middle;resizable=0;points=[];" vertex="1" connectable="0" parent="lvZQd4kGXBRueiIC1qZG-156">
          <mxGeometry x="0.8111" y="-3" relative="1" as="geometry">
            <mxPoint as="offset" />
          </mxGeometry>
        </mxCell>
        <mxCell id="lvZQd4kGXBRueiIC1qZG-158" value="Use" style="endArrow=open;endSize=12;dashed=1;html=1;rounded=0;entryX=0.437;entryY=0.96;entryDx=0;entryDy=0;entryPerimeter=0;" edge="1" parent="WIyWlLk6GJQsqaUBKTNV-1" target="lvZQd4kGXBRueiIC1qZG-159">
          <mxGeometry width="160" relative="1" as="geometry">
            <mxPoint x="200" y="120" as="sourcePoint" />
            <mxPoint x="200" y="40" as="targetPoint" />
          </mxGeometry>
        </mxCell>
        <mxCell id="lvZQd4kGXBRueiIC1qZG-159" value="&lt;b&gt;ScoreManage&lt;/b&gt;" style="html=1;whiteSpace=wrap;" vertex="1" parent="WIyWlLk6GJQsqaUBKTNV-1">
          <mxGeometry x="140" width="140" height="50" as="geometry" />
        </mxCell>
        <mxCell id="lvZQd4kGXBRueiIC1qZG-161" value="&lt;b&gt;Score&lt;/b&gt;" style="html=1;whiteSpace=wrap;" vertex="1" parent="WIyWlLk6GJQsqaUBKTNV-1">
          <mxGeometry x="230" y="-100" width="140" height="50" as="geometry" />
        </mxCell>
        <mxCell id="lvZQd4kGXBRueiIC1qZG-162" value="Use" style="endArrow=open;endSize=12;dashed=1;html=1;rounded=0;exitX=0.5;exitY=0;exitDx=0;exitDy=0;" edge="1" parent="WIyWlLk6GJQsqaUBKTNV-1" source="lvZQd4kGXBRueiIC1qZG-159" target="lvZQd4kGXBRueiIC1qZG-161">
          <mxGeometry width="160" relative="1" as="geometry">
            <mxPoint x="210" y="130" as="sourcePoint" />
            <mxPoint x="181" y="58" as="targetPoint" />
          </mxGeometry>
        </mxCell>
        <mxCell id="lvZQd4kGXBRueiIC1qZG-163" value="&lt;b&gt;SupplyBlock&lt;/b&gt;" style="html=1;whiteSpace=wrap;" vertex="1" parent="WIyWlLk6GJQsqaUBKTNV-1">
          <mxGeometry x="837" y="720" width="140" height="50" as="geometry" />
        </mxCell>
        <mxCell id="lvZQd4kGXBRueiIC1qZG-164" value="Use" style="endArrow=open;endSize=12;dashed=1;html=1;rounded=0;exitX=1.002;exitY=0.643;exitDx=0;exitDy=0;exitPerimeter=0;entryX=0;entryY=0.5;entryDx=0;entryDy=0;" edge="1" parent="WIyWlLk6GJQsqaUBKTNV-1" source="lvZQd4kGXBRueiIC1qZG-84" target="lvZQd4kGXBRueiIC1qZG-163">
          <mxGeometry width="160" relative="1" as="geometry">
            <mxPoint x="419" y="620" as="sourcePoint" />
            <mxPoint x="872" y="810" as="targetPoint" />
          </mxGeometry>
        </mxCell>
        <mxCell id="lvZQd4kGXBRueiIC1qZG-165" value="Extends" style="endArrow=block;endSize=16;endFill=0;html=1;rounded=0;entryX=1;entryY=0.25;entryDx=0;entryDy=0;exitX=0;exitY=0.75;exitDx=0;exitDy=0;" edge="1" parent="WIyWlLk6GJQsqaUBKTNV-1" source="lvZQd4kGXBRueiIC1qZG-163" target="lvZQd4kGXBRueiIC1qZG-102">
          <mxGeometry width="160" relative="1" as="geometry">
            <mxPoint x="837" y="740" as="sourcePoint" />
            <mxPoint x="220" y="623" as="targetPoint" />
          </mxGeometry>
        </mxCell>
        <mxCell id="lvZQd4kGXBRueiIC1qZG-166" value="Text" style="edgeLabel;html=1;align=center;verticalAlign=middle;resizable=0;points=[];" vertex="1" connectable="0" parent="lvZQd4kGXBRueiIC1qZG-165">
          <mxGeometry x="0.8111" y="-3" relative="1" as="geometry">
            <mxPoint as="offset" />
          </mxGeometry>
        </mxCell>
        <mxCell id="lvZQd4kGXBRueiIC1qZG-167" value="&lt;b&gt;SupplyNode&lt;/b&gt;" style="html=1;whiteSpace=wrap;" vertex="1" parent="WIyWlLk6GJQsqaUBKTNV-1">
          <mxGeometry x="90" y="1060" width="140" height="50" as="geometry" />
        </mxCell>
        <mxCell id="lvZQd4kGXBRueiIC1qZG-169" value="Use" style="endArrow=open;endSize=12;dashed=1;html=1;rounded=0;exitX=0.5;exitY=1;exitDx=0;exitDy=0;entryX=0.823;entryY=-0.003;entryDx=0;entryDy=0;entryPerimeter=0;" edge="1" parent="WIyWlLk6GJQsqaUBKTNV-1" source="lvZQd4kGXBRueiIC1qZG-84" target="lvZQd4kGXBRueiIC1qZG-167">
          <mxGeometry width="160" relative="1" as="geometry">
            <mxPoint x="347" y="618" as="sourcePoint" />
            <mxPoint x="210" y="1050" as="targetPoint" />
          </mxGeometry>
        </mxCell>
        <mxCell id="lvZQd4kGXBRueiIC1qZG-171" value="" style="endArrow=block;dashed=1;endFill=0;endSize=12;html=1;rounded=0;entryX=1;entryY=0.75;entryDx=0;entryDy=0;" edge="1" parent="WIyWlLk6GJQsqaUBKTNV-1" target="lvZQd4kGXBRueiIC1qZG-191">
          <mxGeometry width="160" relative="1" as="geometry">
            <mxPoint x="-270" y="470" as="sourcePoint" />
            <mxPoint x="-390" y="455" as="targetPoint" />
          </mxGeometry>
        </mxCell>
        <mxCell id="lvZQd4kGXBRueiIC1qZG-172" value="Use" style="endArrow=open;endSize=12;dashed=1;html=1;rounded=0;entryX=0.568;entryY=-0.005;entryDx=0;entryDy=0;exitX=0.408;exitY=0.958;exitDx=0;exitDy=0;exitPerimeter=0;entryPerimeter=0;" edge="1" parent="WIyWlLk6GJQsqaUBKTNV-1">
          <mxGeometry width="160" relative="1" as="geometry">
            <mxPoint x="357" y="628" as="sourcePoint" />
            <mxPoint x="340" y="1100" as="targetPoint" />
          </mxGeometry>
        </mxCell>
        <mxCell id="lvZQd4kGXBRueiIC1qZG-174" value="Use" style="endArrow=open;endSize=12;dashed=1;html=1;rounded=0;exitX=0.5;exitY=0;exitDx=0;exitDy=0;entryX=0.5;entryY=1;entryDx=0;entryDy=0;" edge="1" parent="WIyWlLk6GJQsqaUBKTNV-1" source="lvZQd4kGXBRueiIC1qZG-191" target="lvZQd4kGXBRueiIC1qZG-192">
          <mxGeometry x="-0.0625" y="1" width="160" relative="1" as="geometry">
            <mxPoint x="-439.98" y="430" as="sourcePoint" />
            <mxPoint x="-460" y="380" as="targetPoint" />
            <mxPoint as="offset" />
          </mxGeometry>
        </mxCell>
        <mxCell id="lvZQd4kGXBRueiIC1qZG-177" value="&lt;b&gt;InitGameUi&lt;/b&gt;" style="html=1;whiteSpace=wrap;" vertex="1" parent="WIyWlLk6GJQsqaUBKTNV-1">
          <mxGeometry x="520" y="390" width="110" height="50" as="geometry" />
        </mxCell>
        <mxCell id="lvZQd4kGXBRueiIC1qZG-178" value="Use" style="endArrow=open;endSize=12;dashed=1;html=1;rounded=0;exitX=1;exitY=0.5;exitDx=0;exitDy=0;entryX=0;entryY=0.5;entryDx=0;entryDy=0;" edge="1" parent="WIyWlLk6GJQsqaUBKTNV-1" source="lvZQd4kGXBRueiIC1qZG-85" target="lvZQd4kGXBRueiIC1qZG-177">
          <mxGeometry width="160" relative="1" as="geometry">
            <mxPoint x="390" y="390" as="sourcePoint" />
            <mxPoint x="550" y="390" as="targetPoint" />
          </mxGeometry>
        </mxCell>
        <mxCell id="lvZQd4kGXBRueiIC1qZG-179" value="&lt;b&gt;Counter&lt;/b&gt;" style="html=1;whiteSpace=wrap;" vertex="1" parent="WIyWlLk6GJQsqaUBKTNV-1">
          <mxGeometry x="730" y="390" width="200" height="50" as="geometry" />
        </mxCell>
        <mxCell id="lvZQd4kGXBRueiIC1qZG-180" value="Use" style="endArrow=open;endSize=12;dashed=1;html=1;rounded=0;exitX=1;exitY=0.5;exitDx=0;exitDy=0;entryX=0;entryY=0.5;entryDx=0;entryDy=0;" edge="1" parent="WIyWlLk6GJQsqaUBKTNV-1" source="lvZQd4kGXBRueiIC1qZG-177" target="lvZQd4kGXBRueiIC1qZG-179">
          <mxGeometry width="160" relative="1" as="geometry">
            <mxPoint x="423" y="505" as="sourcePoint" />
            <mxPoint x="520" y="475" as="targetPoint" />
          </mxGeometry>
        </mxCell>
        <mxCell id="lvZQd4kGXBRueiIC1qZG-181" value="&lt;b&gt;IntArrayIterator&lt;/b&gt;" style="html=1;whiteSpace=wrap;" vertex="1" parent="WIyWlLk6GJQsqaUBKTNV-1">
          <mxGeometry x="520" y="460" width="140" height="50" as="geometry" />
        </mxCell>
        <mxCell id="lvZQd4kGXBRueiIC1qZG-182" value="Use" style="endArrow=open;endSize=12;dashed=1;html=1;rounded=0;exitX=0.979;exitY=0.7;exitDx=0;exitDy=0;entryX=0;entryY=0.5;entryDx=0;entryDy=0;exitPerimeter=0;" edge="1" parent="WIyWlLk6GJQsqaUBKTNV-1" source="lvZQd4kGXBRueiIC1qZG-85" target="lvZQd4kGXBRueiIC1qZG-181">
          <mxGeometry x="0.0875" y="-1" width="160" relative="1" as="geometry">
            <mxPoint x="423" y="505" as="sourcePoint" />
            <mxPoint x="510" y="455" as="targetPoint" />
            <mxPoint as="offset" />
          </mxGeometry>
        </mxCell>
        <mxCell id="lvZQd4kGXBRueiIC1qZG-184" value="Use" style="endArrow=open;endSize=12;dashed=1;html=1;rounded=0;exitX=0.5;exitY=0;exitDx=0;exitDy=0;entryX=0.5;entryY=1;entryDx=0;entryDy=0;" edge="1" parent="WIyWlLk6GJQsqaUBKTNV-1" source="lvZQd4kGXBRueiIC1qZG-79" target="lvZQd4kGXBRueiIC1qZG-185">
          <mxGeometry x="-0.0075" width="160" relative="1" as="geometry">
            <mxPoint x="190" y="10" as="sourcePoint" />
            <mxPoint x="-95" y="-30" as="targetPoint" />
            <Array as="points" />
            <mxPoint as="offset" />
          </mxGeometry>
        </mxCell>
        <mxCell id="lvZQd4kGXBRueiIC1qZG-185" value="&lt;b&gt;RandomNumberGenerator&lt;/b&gt;" style="html=1;whiteSpace=wrap;" vertex="1" parent="WIyWlLk6GJQsqaUBKTNV-1">
          <mxGeometry x="-250" y="-90" width="180" height="50" as="geometry" />
        </mxCell>
        <mxCell id="lvZQd4kGXBRueiIC1qZG-186" value="Use" style="endArrow=open;endSize=12;dashed=1;html=1;rounded=0;entryX=0.5;entryY=1;entryDx=0;entryDy=0;" edge="1" parent="WIyWlLk6GJQsqaUBKTNV-1" source="lvZQd4kGXBRueiIC1qZG-56" target="lvZQd4kGXBRueiIC1qZG-187">
          <mxGeometry width="160" relative="1" as="geometry">
            <mxPoint x="120" y="100" as="sourcePoint" />
            <mxPoint x="110" y="50" as="targetPoint" />
          </mxGeometry>
        </mxCell>
        <mxCell id="lvZQd4kGXBRueiIC1qZG-187" value="&lt;b&gt;ScoreCalculator&lt;/b&gt;" style="html=1;whiteSpace=wrap;" vertex="1" parent="WIyWlLk6GJQsqaUBKTNV-1">
          <mxGeometry x="-20" y="-20" width="140" height="50" as="geometry" />
        </mxCell>
        <mxCell id="lvZQd4kGXBRueiIC1qZG-188" value="&lt;b&gt;LevelData&lt;/b&gt;" style="html=1;whiteSpace=wrap;" vertex="1" parent="WIyWlLk6GJQsqaUBKTNV-1">
          <mxGeometry x="520" y="530" width="140" height="50" as="geometry" />
        </mxCell>
        <mxCell id="lvZQd4kGXBRueiIC1qZG-189" value="Use" style="endArrow=open;endSize=12;dashed=1;html=1;rounded=0;exitX=1;exitY=0.75;exitDx=0;exitDy=0;entryX=0;entryY=0.5;entryDx=0;entryDy=0;" edge="1" parent="WIyWlLk6GJQsqaUBKTNV-1" source="lvZQd4kGXBRueiIC1qZG-85" target="lvZQd4kGXBRueiIC1qZG-188">
          <mxGeometry x="0.0875" y="-1" width="160" relative="1" as="geometry">
            <mxPoint x="420" y="515" as="sourcePoint" />
            <mxPoint x="530" y="495" as="targetPoint" />
            <mxPoint as="offset" />
          </mxGeometry>
        </mxCell>
        <mxCell id="lvZQd4kGXBRueiIC1qZG-190" style="edgeStyle=orthogonalEdgeStyle;rounded=0;orthogonalLoop=1;jettySize=auto;html=1;exitX=0.5;exitY=1;exitDx=0;exitDy=0;" edge="1" parent="WIyWlLk6GJQsqaUBKTNV-1">
          <mxGeometry relative="1" as="geometry">
            <mxPoint x="-460" y="480" as="sourcePoint" />
            <mxPoint x="-460" y="480" as="targetPoint" />
          </mxGeometry>
        </mxCell>
        <mxCell id="lvZQd4kGXBRueiIC1qZG-191" value="«interface»&lt;br&gt;&lt;div&gt;&lt;b&gt;ObserverSubject&lt;/b&gt;&lt;/div&gt;" style="html=1;whiteSpace=wrap;" vertex="1" parent="WIyWlLk6GJQsqaUBKTNV-1">
          <mxGeometry x="-500" y="430" width="110" height="50" as="geometry" />
        </mxCell>
        <mxCell id="lvZQd4kGXBRueiIC1qZG-192" value="«interface»&lt;br&gt;&lt;div&gt;&lt;b&gt;Observer&lt;/b&gt;&lt;/div&gt;" style="html=1;whiteSpace=wrap;" vertex="1" parent="WIyWlLk6GJQsqaUBKTNV-1">
          <mxGeometry x="-490" y="330" width="110" height="50" as="geometry" />
        </mxCell>
      </root>
    </mxGraphModel>
  </diagram>
</mxfile>
